<?xml version="1.0" encoding="UTF-8"?>
<svg xmlns="http://www.w3.org/2000/svg" viewBox="0 0 80 80" aria-label="Vaishnavi mark">
  <!-- Compact mark-only logo for navbar / favicon usage.
       Same medallion + cow + lotus, no wordmark. -->
  <defs>
    <radialGradient id="mark-bg-sm" cx="50%" cy="50%" r="55%">
      <stop offset="0%"  stop-color="#FBF5E9"/>
      <stop offset="100%" stop-color="#F4EBD6"/>
    </radialGradient>
  </defs>

  <g transform="translate(40 8)" fill="none" stroke="#C9A961" stroke-width="1">
    <path d="M0 -5 C -3 -1, -3 2, 0 4 C 3 2, 3 -1, 0 -5 Z"/>
    <path d="M-8 0 C -5 -3, -3 -3, 0 0 C -3 3, -5 3, -8 0 Z"/>
    <path d="M8 0 C 5 -3, 3 -3, 0 0 C 3 3, 5 3, 8 0 Z"/>
    <circle cx="0" cy="0" r="1.5" fill="#7A1F1F" stroke="none"/>
  </g>

  <circle cx="40" cy="44" r="30" fill="url(#mark-bg-sm)" stroke="#7A1F1F" stroke-width="2"/>
  <circle cx="40" cy="44" r="26" fill="none" stroke="#C9A961" stroke-width="0.6"/>

  <g transform="translate(22 28)" fill="#7A1F1F">
    <path d="M5 18
             C 2 17, 1 13, 4 11
             L 7 8
             L 18 7
             L 26 8
             L 32 12
             C 34 14, 34 18, 32 20
             L 30 24
             L 9 24
             L 6 22 Z"/>
    <path d="M32 12 C 35 9, 38 9, 39 12 L 40 15 L 38 18 L 34 18 Z"/>
    <path d="M36 9 L37 5 L38 9 Z" fill="#C9A961"/>
    <rect x="9"  y="23" width="2" height="6"/>
    <rect x="14" y="23" width="2" height="6"/>
    <rect x="22" y="23" width="2" height="6"/>
    <rect x="27" y="23" width="2" height="6"/>
    <ellipse cx="14" cy="23" rx="4" ry="2.5" fill="#C9A961" opacity="0.85"/>
    <circle cx="22" cy="14" r="1.4" fill="#B33A2A"/>
  </g>
</svg>
